<svg width="159" height="179" viewBox="0 0 159 179" fill="none" xmlns="http://www.w3.org/2000/svg">
<g clip-path="url(#clip0_21_195)">
<path d="M60.6163 109.123C61.5147 110.862 61.3458 112.735 60.239 113.307C59.1323 113.879 57.5067 112.932 56.6083 111.193C56.215 110.432 56.0262 109.645 56.0311 108.953L52.3166 101.535L55.8345 99.8661L59.1229 107.355C59.6904 107.752 60.223 108.361 60.6163 109.123Z" fill="#FFB6B6"/>
<path d="M32.9734 176.049L36.1405 176.048L37.6471 163.832L32.9728 163.833L32.9734 176.049Z" fill="#FFB6B6"/>
<path d="M43.8242 175.977C43.9229 176.143 43.9749 176.679 43.9749 176.872C43.9749 177.466 43.4936 177.947 42.9 177.947H33.0918C32.6868 177.947 32.3585 177.619 32.3585 177.214V176.805C32.3585 176.805 31.8733 175.578 32.8723 174.065C32.8723 174.065 34.1138 175.25 35.969 173.395L36.5161 172.404L40.4762 175.3L42.6712 175.57C43.1515 175.629 43.5772 175.561 43.8242 175.977Z" fill="#2F2E41"/>
<path d="M18.1153 176.049L21.2824 176.048L22.789 163.832L18.1147 163.833L18.1153 176.049Z" fill="#FFB6B6"/>
<path d="M28.9662 175.977C29.0648 176.143 29.1169 176.679 29.1169 176.872C29.1169 177.466 28.6356 177.947 28.0419 177.947H18.2338C17.8288 177.947 17.5005 177.619 17.5005 177.214V176.805C17.5005 176.805 17.0153 175.578 18.0142 174.065C18.0142 174.065 19.2558 175.25 21.111 173.395L21.6581 172.404L25.6182 175.3L27.8132 175.57C28.2934 175.629 28.7192 175.561 28.9662 175.977Z" fill="#2F2E41"/>
<path d="M13.6323 103.972L12.298 112.125L16.4489 138.513L17.4867 170.386H23.0908L25.9367 140.292L25.6402 120.427L32.3113 170.683H38.1349L38.6859 107.678L13.6323 103.972Z" fill="#2F2E41"/>
<path d="M20.5999 61.7215H31.0915L40.1684 67.0584C38.7557 66.6993 37.6643 79.8058 37.6272 91.3866C37.6247 92.1561 36.8621 93.0409 36.8692 93.7925C36.8753 94.4401 37.6497 94.9575 37.6632 95.5858C37.6757 96.173 37.6916 96.7504 37.7108 97.3159C37.7268 97.7854 36.8485 98.4074 36.8692 98.859C36.8957 99.436 37.8226 99.8367 37.8571 100.38C38.0687 103.718 38.4334 106.363 38.9824 107.678C38.9824 107.678 15.5595 114.201 13.7805 104.12C13.7805 104.12 13.8821 100.497 13.8679 95.493C13.8666 95.049 13.4885 94.6463 13.4853 94.1822C13.4829 93.8372 13.8558 93.4349 13.8521 93.0802C13.8491 92.7886 13.4892 92.5309 13.4853 92.2336C13.483 92.0564 13.8369 91.8413 13.8343 91.6623C13.692 82.1475 13.0532 70.1565 10.8156 67.0584L20.5999 61.7215V61.7215Z" fill="#2D1A61"/>
<path d="M30.9771 61.7215C30.9771 61.7215 37.7755 64.1921 39.9327 66.1602C41.079 67.2061 48.7667 86.9234 48.7667 86.9234L59.4445 105.519L53.8941 107.627L42.5403 90.4813L37.4999 79.2146L30.9771 61.7215Z" fill="#2D1A61"/>
<path d="M16.8759 109.826C17.8675 111.514 17.8006 113.394 16.7265 114.025C15.6524 114.656 13.9778 113.799 12.9862 112.111C12.5522 111.373 12.321 110.597 12.2883 109.905L8.17651 102.701L11.5986 100.843L15.2888 108.143C15.877 108.508 16.4419 109.088 16.8759 109.826Z" fill="#FFB6B6"/>
<path d="M19.1174 70.9128L16.1525 64.0935C16.1525 64.0935 9.18492 66.3172 9.18492 69.5786C9.18492 69.5786 5.03403 94.4839 5.62701 100.71L9.48141 107.53L14.9665 103.23L11.5569 95.3734L19.1174 70.9128Z" fill="#2D1A61"/>
<path d="M13.0197 115.216L16.517 108.271L20.5998 113.904L16.9253 117.462L13.0197 115.216Z" fill="#2F2E41"/>
<path d="M25.7468 59.7625C29.4943 59.7625 32.5323 56.7245 32.5323 52.977C32.5323 49.2295 29.4943 46.1915 25.7468 46.1915C21.9993 46.1915 18.9614 49.2295 18.9614 52.977C18.9614 56.7245 21.9993 59.7625 25.7468 59.7625Z" fill="#FFB6B6"/>
<path d="M31.038 45.3971C29.8588 45.0194 29.3009 43.6168 28.2223 43.0088C27.0294 42.3364 25.6024 41.9167 24.287 42.2971C23.48 42.5305 22.7768 43.0465 21.9691 43.2779C21.828 43.3184 21.6794 43.3463 21.5286 43.3607C20.66 43.4434 19.9143 43.9643 19.4802 44.7212L19.4689 44.7408C19.2141 45.1769 18.8518 45.538 18.5304 45.9276C17.3572 47.3492 16.7223 49.1967 16.7354 51.0398C16.7494 53.021 17.5117 54.988 18.8364 56.4612L19.1748 56.3052C19.9926 57.0116 20.8104 57.718 21.6282 58.4244C21.1832 56.8185 20.734 55.1564 20.9696 53.5068C21.2052 51.8571 22.3145 50.2113 23.9502 49.8928C24.569 49.7723 25.2216 49.8451 25.8222 49.6539C26.4229 49.4626 26.9762 48.8451 26.7701 48.2493C27.142 49.2326 28.5293 49.1745 29.4841 49.6144C31.6212 50.599 30.8389 49.0774 32.694 50.5248C33.3207 47.052 35.721 46.8969 31.038 45.3971L31.038 45.3971Z" fill="#2F2E41"/>
<path d="M0 177.712C0 177.97 0.20657 178.176 0.463804 178.176H157.639C157.896 178.176 158.103 177.97 158.103 177.712C158.103 177.455 157.896 177.249 157.639 177.249H0.463804C0.20657 177.249 0 177.455 0 177.712Z" fill="#CCCCCC"/>
<path d="M137.077 178.176H68.3188C59.9349 178.176 53.1141 171.355 53.1141 162.971V15.2047C53.1141 6.82086 59.9349 0 68.3188 0H137.077C145.461 0 152.282 6.82086 152.282 15.2047V162.971C152.282 171.355 145.461 178.176 137.077 178.176Z" fill="#3F3D56"/>
<path d="M152.282 54.3534C151.927 54.3534 151.639 54.6419 151.639 54.9966V75.5801C151.639 75.9349 151.927 76.2234 152.282 76.2234C152.637 76.2234 152.925 75.9349 152.925 75.5801V54.9966C152.925 54.6419 152.637 54.3534 152.282 54.3534Z" fill="#3F3D56"/>
<path d="M150.835 15.2049V162.969C150.835 170.266 145.155 176.235 137.973 176.699H137.97C137.864 176.705 137.758 176.711 137.648 176.715C137.459 176.724 137.269 176.728 137.076 176.728C137.076 176.728 136.368 176.676 135.075 176.58C133.77 176.483 131.869 176.338 129.499 176.149C128.788 176.094 128.038 176.033 127.247 175.969C125.671 175.84 123.941 175.698 122.085 175.538C121.346 175.476 120.58 175.409 119.799 175.341C115.804 174.997 111.33 174.595 106.612 174.139C105.815 174.065 105.011 173.987 104.2 173.907C103.988 173.884 103.772 173.865 103.557 173.843C100.193 173.511 54.5615 164.693 54.5615 162.969V15.2049C54.5615 7.60506 60.7205 1.44608 68.3203 1.44608H76.5344C77.8466 1.44608 78.9015 2.46882 79.0141 3.7778C79.0237 3.86465 79.0334 3.95147 79.0495 4.03831C79.2875 5.35373 80.4935 6.27034 81.8315 6.27034H123.565C124.903 6.27034 126.109 5.35373 126.347 4.03831C126.363 3.95147 126.372 3.86465 126.382 3.7778C126.495 2.46882 127.55 1.44608 128.862 1.44608H137.076C144.676 1.44608 150.835 7.60506 150.835 15.2049Z" fill="white"/>
<path d="M52.7925 38.9158C52.4378 38.9158 52.1493 39.2042 52.1493 39.559V44.7049C52.1493 45.0596 52.4378 45.3481 52.7925 45.3481C53.1473 45.3481 53.4358 45.0596 53.4358 44.7049V39.559C53.4358 39.2042 53.1473 38.9158 52.7925 38.9158Z" fill="#3F3D56"/>
<path d="M52.7925 54.3534C52.4378 54.3534 52.1493 54.6419 52.1493 54.9966V64.9668C52.1493 65.3215 52.4378 65.61 52.7925 65.61C53.1473 65.61 53.4358 65.3215 53.4358 64.9668V54.9966C53.4358 54.6419 53.1473 54.3534 52.7925 54.3534Z" fill="#3F3D56"/>
<path d="M52.7925 68.5045C52.4378 68.5045 52.1493 68.793 52.1493 69.1478V79.1179C52.1493 79.4727 52.4378 79.7612 52.7925 79.7612C53.1473 79.7612 53.4358 79.4727 53.4358 79.1179V69.1478C53.4358 68.793 53.1473 68.5045 52.7925 68.5045Z" fill="#3F3D56"/>
<path d="M76.3105 3.69865H64.0092C63.9424 3.69865 63.8883 3.75278 63.8883 3.81955V5.18584C63.8883 5.25261 63.9424 5.30674 64.0092 5.30674H76.3105C76.3773 5.30674 76.4314 5.25261 76.4314 5.18584V3.81955C76.4314 3.75278 76.3773 3.69865 76.3105 3.69865Z" fill="#E6E6E6"/>
<path d="M130.894 5.30674C131.605 5.30674 132.181 4.73076 132.181 4.02027C132.181 3.30977 131.605 2.7338 130.894 2.7338C130.184 2.7338 129.608 3.30977 129.608 4.02027C129.608 4.73076 130.184 5.30674 130.894 5.30674Z" fill="#E6E6E6"/>
<path d="M134.432 5.30674C135.143 5.30674 135.719 4.73076 135.719 4.02027C135.719 3.30977 135.143 2.7338 134.432 2.7338C133.722 2.7338 133.146 3.30977 133.146 4.02027C133.146 4.73076 133.722 5.30674 134.432 5.30674Z" fill="#E6E6E6"/>
<path d="M137.97 5.30674C138.68 5.30674 139.256 4.73076 139.256 4.02027C139.256 3.30977 138.68 2.7338 137.97 2.7338C137.259 2.7338 136.683 3.30977 136.683 4.02027C136.683 4.73076 137.259 5.30674 137.97 5.30674Z" fill="#E6E6E6"/>
<path d="M129.979 37.0865H75.4168C74.5573 37.0865 73.8579 36.3871 73.8579 35.5276C73.8579 34.668 74.5573 33.9686 75.4168 33.9686H129.979C130.839 33.9686 131.538 34.668 131.538 35.5276C131.538 36.3871 130.839 37.0865 129.979 37.0865Z" fill="#E6E6E6"/>
<path d="M139.154 160.437H118.888C118.028 160.437 117.329 159.737 117.329 158.878C117.329 158.018 118.028 157.319 118.888 157.319H139.154C140.013 157.319 140.713 158.018 140.713 158.878C140.713 159.737 140.013 160.437 139.154 160.437Z" fill="#E6E6E6"/>
<path d="M84.981 160.437H64.7149C63.8554 160.437 63.156 159.737 63.156 158.878C63.156 158.018 63.8554 157.319 64.7149 157.319H84.981C85.8406 157.319 86.5399 158.018 86.5399 158.878C86.5399 159.737 85.8406 160.437 84.981 160.437Z" fill="#E6E6E6"/>
<path d="M140.713 41.2753H64.6834V41.6651H140.713V41.2753Z" fill="#3F3D56"/>
<path d="M129.979 60.8602H75.4168C74.5573 60.8602 73.8579 60.1608 73.8579 59.3012C73.8579 58.4416 74.5573 57.7423 75.4168 57.7423H129.979C130.839 57.7423 131.538 58.4416 131.538 59.3012C131.538 60.1608 130.839 60.8602 129.979 60.8602Z" fill="#E6E6E6"/>
<path d="M140.713 65.049H64.6834V65.4387H140.713V65.049Z" fill="#3F3D56"/>
<path d="M129.979 84.6338H75.4168C74.5573 84.6338 73.8579 83.9344 73.8579 83.0749C73.8579 82.2153 74.5573 81.5159 75.4168 81.5159H129.979C130.839 81.5159 131.538 82.2153 131.538 83.0749C131.538 83.9344 130.839 84.6338 129.979 84.6338Z" fill="#E6E6E6"/>
<path d="M140.713 88.8226H64.6834V89.2124H140.713V88.8226Z" fill="#3F3D56"/>
<path d="M140.713 109.089H64.6834V109.478H140.713V109.089Z" fill="#3F3D56"/>
<path d="M140.713 129.355H64.6834V129.745H140.713V129.355Z" fill="#3F3D56"/>
<path d="M103.233 143.611C115.717 143.611 125.838 133.49 125.838 121.006C125.838 108.522 115.717 98.4018 103.233 98.4018C90.749 98.4018 80.6287 108.522 80.6287 121.006C80.6287 133.49 90.749 143.611 103.233 143.611Z" fill="#2D1A61"/>
</g>
<defs>
<clipPath id="clip0_21_195">
<rect width="158.103" height="178.176" fill="white"/>
</clipPath>
</defs>
</svg>
